<?xml version="1.0" encoding="UTF-8" standalone="no"?>
<!DOCTYPE svg PUBLIC "-//W3C//DTD SVG 1.1//EN"
 "http://www.w3.org/Graphics/SVG/1.1/DTD/svg11.dtd">
<!-- Generated by graphviz version 2.36.0 (20140111.2315)
 -->
<!-- Title: G Pages: 1 -->
<svg width="1847pt" height="1008pt"
 viewBox="0.00 0.00 1847.20 1008.20" xmlns="http://www.w3.org/2000/svg" xmlns:xlink="http://www.w3.org/1999/xlink">
<g id="graph0" class="graph" transform="scale(1 1) rotate(0) translate(21.6 986.6)">
<title>G</title>
<polygon fill="#111111" stroke="none" points="-21.6,21.6 -21.6,-986.6 1825.6,-986.6 1825.6,21.6 -21.6,21.6"/>
<!-- index.js -->
<g id="node1" class="node"><title>index.js</title>
<path fill="none" stroke="#c6c5fe" d="M56.3333,-807.5C56.3333,-807.5 7.66667,-807.5 7.66667,-807.5 3.83333,-807.5 0,-803.667 0,-799.833 0,-799.833 0,-792.167 0,-792.167 0,-788.333 3.83333,-784.5 7.66667,-784.5 7.66667,-784.5 56.3333,-784.5 56.3333,-784.5 60.1667,-784.5 64,-788.333 64,-792.167 64,-792.167 64,-799.833 64,-799.833 64,-803.667 60.1667,-807.5 56.3333,-807.5"/>
<text text-anchor="middle" x="32" y="-792.3" font-family="Arial" font-size="14.00" fill="#c6c5fe">index.js</text>
</g>
<!-- lib/axios.js -->
<g id="node2" class="node"><title>lib/axios.js</title>
<path fill="none" stroke="#c6c5fe" d="M173.833,-807.5C173.833,-807.5 108.167,-807.5 108.167,-807.5 104.333,-807.5 100.5,-803.667 100.5,-799.833 100.5,-799.833 100.5,-792.167 100.5,-792.167 100.5,-788.333 104.333,-784.5 108.167,-784.5 108.167,-784.5 173.833,-784.5 173.833,-784.5 177.667,-784.5 181.5,-788.333 181.5,-792.167 181.5,-792.167 181.5,-799.833 181.5,-799.833 181.5,-803.667 177.667,-807.5 173.833,-807.5"/>
<text text-anchor="middle" x="141" y="-792.3" font-family="Arial" font-size="14.00" fill="#c6c5fe">lib/axios.js</text>
</g>
<!-- index.js&#45;&gt;lib/axios.js -->
<g id="edge1" class="edge"><title>index.js&#45;&gt;lib/axios.js</title>
<path fill="none" stroke="#757575" d="M64.2365,-796C72.3056,-796 81.1971,-796 89.964,-796"/>
<polygon fill="#757575" stroke="#757575" points="90.1417,-799.5 100.142,-796 90.1417,-792.5 90.1417,-799.5"/>
</g>
<!-- lib/utils.js -->
<g id="node9" class="node"><title>lib/utils.js</title>
<path fill="none" stroke="#c6c5fe" d="M1536.83,-580.5C1536.83,-580.5 1479.17,-580.5 1479.17,-580.5 1475.33,-580.5 1471.5,-576.667 1471.5,-572.833 1471.5,-572.833 1471.5,-565.167 1471.5,-565.167 1471.5,-561.333 1475.33,-557.5 1479.17,-557.5 1479.17,-557.5 1536.83,-557.5 1536.83,-557.5 1540.67,-557.5 1544.5,-561.333 1544.5,-565.167 1544.5,-565.167 1544.5,-572.833 1544.5,-572.833 1544.5,-576.667 1540.67,-580.5 1536.83,-580.5"/>
<text text-anchor="middle" x="1508" y="-565.3" font-family="Arial" font-size="14.00" fill="#c6c5fe">lib/utils.js</text>
</g>
<!-- lib/axios.js&#45;&gt;lib/utils.js -->
<g id="edge25" class="edge"><title>lib/axios.js&#45;&gt;lib/utils.js</title>
<path fill="none" stroke="#757575" d="M181.55,-797.115C380.996,-802.443 1271.04,-822.586 1376,-761 1443.56,-721.361 1483.98,-631.453 1499.58,-590.293"/>
<polygon fill="#757575" stroke="#757575" points="1502.93,-591.312 1503.09,-580.718 1496.36,-588.902 1502.93,-591.312"/>
</g>
<!-- lib/cancel/Cancel.js -->
<g id="node15" class="node"><title>lib/cancel/Cancel.js</title>
<path fill="none" stroke="#cfffac" d="M582.333,-946.5C582.333,-946.5 461.667,-946.5 461.667,-946.5 457.833,-946.5 454,-942.667 454,-938.833 454,-938.833 454,-931.167 454,-931.167 454,-927.333 457.833,-923.5 461.667,-923.5 461.667,-923.5 582.333,-923.5 582.333,-923.5 586.167,-923.5 590,-927.333 590,-931.167 590,-931.167 590,-938.833 590,-938.833 590,-942.667 586.167,-946.5 582.333,-946.5"/>
<text text-anchor="middle" x="522" y="-931.3" font-family="Arial" font-size="14.00" fill="#cfffac">lib/cancel/Cancel.js</text>
</g>
<!-- lib/axios.js&#45;&gt;lib/cancel/Cancel.js -->
<g id="edge17" class="edge"><title>lib/axios.js&#45;&gt;lib/cancel/Cancel.js</title>
<path fill="none" stroke="#757575" d="M147.48,-807.256C158.021,-827.575 183.198,-870.112 218,-890 255.396,-911.37 366.772,-923.712 443.54,-929.896"/>
<polygon fill="#757575" stroke="#757575" points="443.417,-933.397 453.66,-930.692 443.966,-926.419 443.417,-933.397"/>
</g>
<!-- lib/cancel/CancelToken.js -->
<g id="node16" class="node"><title>lib/cancel/CancelToken.js</title>
<path fill="none" stroke="#c6c5fe" d="M385.833,-965.5C385.833,-965.5 226.167,-965.5 226.167,-965.5 222.333,-965.5 218.5,-961.667 218.5,-957.833 218.5,-957.833 218.5,-950.167 218.5,-950.167 218.5,-946.333 222.333,-942.5 226.167,-942.5 226.167,-942.5 385.833,-942.5 385.833,-942.5 389.667,-942.5 393.5,-946.333 393.5,-950.167 393.5,-950.167 393.5,-957.833 393.5,-957.833 393.5,-961.667 389.667,-965.5 385.833,-965.5"/>
<text text-anchor="middle" x="306" y="-950.3" font-family="Arial" font-size="14.00" fill="#c6c5fe">lib/cancel/CancelToken.js</text>
</g>
<!-- lib/axios.js&#45;&gt;lib/cancel/CancelToken.js -->
<g id="edge18" class="edge"><title>lib/axios.js&#45;&gt;lib/cancel/CancelToken.js</title>
<path fill="none" stroke="#757575" d="M145.365,-807.475C153.468,-833.076 176.526,-895.183 218,-928 223.316,-932.206 229.3,-935.733 235.579,-938.69"/>
<polygon fill="#757575" stroke="#757575" points="234.37,-941.978 244.945,-942.627 237.083,-935.525 234.37,-941.978"/>
</g>
<!-- lib/cancel/isCancel.js -->
<g id="node17" class="node"><title>lib/cancel/isCancel.js</title>
<path fill="none" stroke="#cfffac" d="M816.333,-887.5C816.333,-887.5 685.667,-887.5 685.667,-887.5 681.833,-887.5 678,-883.667 678,-879.833 678,-879.833 678,-872.167 678,-872.167 678,-868.333 681.833,-864.5 685.667,-864.5 685.667,-864.5 816.333,-864.5 816.333,-864.5 820.167,-864.5 824,-868.333 824,-872.167 824,-872.167 824,-879.833 824,-879.833 824,-883.667 820.167,-887.5 816.333,-887.5"/>
<text text-anchor="middle" x="751" y="-872.3" font-family="Arial" font-size="14.00" fill="#cfffac">lib/cancel/isCancel.js</text>
</g>
<!-- lib/axios.js&#45;&gt;lib/cancel/isCancel.js -->
<g id="edge19" class="edge"><title>lib/axios.js&#45;&gt;lib/cancel/isCancel.js</title>
<path fill="none" stroke="#757575" d="M161.302,-807.335C176.261,-815.569 197.781,-826.239 218,-832 372.401,-875.989 561.444,-880.593 667.546,-878.971"/>
<polygon fill="#757575" stroke="#757575" points="667.928,-882.465 677.865,-878.789 667.805,-875.466 667.928,-882.465"/>
</g>
<!-- lib/core/Axios.js -->
<g id="node18" class="node"><title>lib/core/Axios.js</title>
<path fill="none" stroke="#c6c5fe" d="M355.333,-749.5C355.333,-749.5 256.667,-749.5 256.667,-749.5 252.833,-749.5 249,-745.667 249,-741.833 249,-741.833 249,-734.167 249,-734.167 249,-730.333 252.833,-726.5 256.667,-726.5 256.667,-726.5 355.333,-726.5 355.333,-726.5 359.167,-726.5 363,-730.333 363,-734.167 363,-734.167 363,-741.833 363,-741.833 363,-745.667 359.167,-749.5 355.333,-749.5"/>
<text text-anchor="middle" x="306" y="-734.3" font-family="Arial" font-size="14.00" fill="#c6c5fe">lib/core/Axios.js</text>
</g>
<!-- lib/axios.js&#45;&gt;lib/core/Axios.js -->
<g id="edge20" class="edge"><title>lib/axios.js&#45;&gt;lib/core/Axios.js</title>
<path fill="none" stroke="#757575" d="M173.815,-784.679C199.507,-775.537 235.851,-762.605 263.772,-752.67"/>
<polygon fill="#757575" stroke="#757575" points="265.017,-755.942 273.265,-749.292 262.671,-749.347 265.017,-755.942"/>
</g>
<!-- lib/core/mergeConfig.js -->
<g id="node19" class="node"><title>lib/core/mergeConfig.js</title>
<path fill="none" stroke="#c6c5fe" d="M594.333,-847.5C594.333,-847.5 449.667,-847.5 449.667,-847.5 445.833,-847.5 442,-843.667 442,-839.833 442,-839.833 442,-832.167 442,-832.167 442,-828.333 445.833,-824.5 449.667,-824.5 449.667,-824.5 594.333,-824.5 594.333,-824.5 598.167,-824.5 602,-828.333 602,-832.167 602,-832.167 602,-839.833 602,-839.833 602,-843.667 598.167,-847.5 594.333,-847.5"/>
<text text-anchor="middle" x="522" y="-832.3" font-family="Arial" font-size="14.00" fill="#c6c5fe">lib/core/mergeConfig.js</text>
</g>
<!-- lib/axios.js&#45;&gt;lib/core/mergeConfig.js -->
<g id="edge21" class="edge"><title>lib/axios.js&#45;&gt;lib/core/mergeConfig.js</title>
<path fill="none" stroke="#757575" d="M181.722,-804.065C193.375,-806.228 206.166,-808.406 218,-810 289.598,-819.644 371.224,-826.406 431.701,-830.612"/>
<polygon fill="#757575" stroke="#757575" points="431.763,-834.125 441.979,-831.317 432.242,-827.141 431.763,-834.125"/>
</g>
<!-- lib/defaults.js -->
<g id="node20" class="node"><title>lib/defaults.js</title>
<path fill="none" stroke="#c6c5fe" d="M791.833,-593.5C791.833,-593.5 710.167,-593.5 710.167,-593.5 706.333,-593.5 702.5,-589.667 702.5,-585.833 702.5,-585.833 702.5,-578.167 702.5,-578.167 702.5,-574.333 706.333,-570.5 710.167,-570.5 710.167,-570.5 791.833,-570.5 791.833,-570.5 795.667,-570.5 799.5,-574.333 799.5,-578.167 799.5,-578.167 799.5,-585.833 799.5,-585.833 799.5,-589.667 795.667,-593.5 791.833,-593.5"/>
<text text-anchor="middle" x="751" y="-578.3" font-family="Arial" font-size="14.00" fill="#c6c5fe">lib/defaults.js</text>
</g>
<!-- lib/axios.js&#45;&gt;lib/defaults.js -->
<g id="edge22" class="edge"><title>lib/axios.js&#45;&gt;lib/defaults.js</title>
<path fill="none" stroke="#757575" d="M149.72,-784.746C162.108,-767.549 188.094,-734.849 218,-717 373.048,-624.461 590.046,-594.951 692.331,-585.863"/>
<polygon fill="#757575" stroke="#757575" points="692.791,-589.337 702.456,-584.997 692.195,-582.362 692.791,-589.337"/>
</g>
<!-- lib/helpers/bind.js -->
<g id="node21" class="node"><title>lib/helpers/bind.js</title>
<path fill="none" stroke="#cfffac" d="M1776.83,-100.5C1776.83,-100.5 1667.17,-100.5 1667.17,-100.5 1663.33,-100.5 1659.5,-96.6667 1659.5,-92.8333 1659.5,-92.8333 1659.5,-85.1667 1659.5,-85.1667 1659.5,-81.3333 1663.33,-77.5 1667.17,-77.5 1667.17,-77.5 1776.83,-77.5 1776.83,-77.5 1780.67,-77.5 1784.5,-81.3333 1784.5,-85.1667 1784.5,-85.1667 1784.5,-92.8333 1784.5,-92.8333 1784.5,-96.6667 1780.67,-100.5 1776.83,-100.5"/>
<text text-anchor="middle" x="1722" y="-85.3" font-family="Arial" font-size="14.00" fill="#cfffac">lib/helpers/bind.js</text>
</g>
<!-- lib/axios.js&#45;&gt;lib/helpers/bind.js -->
<g id="edge23" class="edge"><title>lib/axios.js&#45;&gt;lib/helpers/bind.js</title>
<path fill="none" stroke="#757575" d="M142.261,-784.596C145.052,-690.866 176.715,-51 521,-51 521,-51 521,-51 1272,-51 1405.71,-51 1561.01,-67.9377 1649.48,-79.1969"/>
<polygon fill="#757575" stroke="#757575" points="1649.04,-82.6692 1659.41,-80.4721 1649.93,-75.7263 1649.04,-82.6692"/>
</g>
<!-- lib/helpers/spread.js -->
<g id="node22" class="node"><title>lib/helpers/spread.js</title>
<path fill="none" stroke="#cfffac" d="M368.833,-22.5C368.833,-22.5 243.167,-22.5 243.167,-22.5 239.333,-22.5 235.5,-18.6667 235.5,-14.8333 235.5,-14.8333 235.5,-7.16667 235.5,-7.16667 235.5,-3.33333 239.333,0.5 243.167,0.5 243.167,0.5 368.833,0.5 368.833,0.5 372.667,0.5 376.5,-3.33333 376.5,-7.16667 376.5,-7.16667 376.5,-14.8333 376.5,-14.8333 376.5,-18.6667 372.667,-22.5 368.833,-22.5"/>
<text text-anchor="middle" x="306" y="-7.3" font-family="Arial" font-size="14.00" fill="#cfffac">lib/helpers/spread.js</text>
</g>
<!-- lib/axios.js&#45;&gt;lib/helpers/spread.js -->
<g id="edge24" class="edge"><title>lib/axios.js&#45;&gt;lib/helpers/spread.js</title>
<path fill="none" stroke="#757575" d="M142.388,-784.51C145.543,-693.974 168.154,-97.3831 218,-37 220.959,-33.4155 224.39,-30.3119 228.146,-27.6258"/>
<polygon fill="#757575" stroke="#757575" points="230.074,-30.5503 236.829,-22.3879 226.458,-24.5564 230.074,-30.5503"/>
</g>
<!-- lib/adapters/http.js -->
<g id="node3" class="node"><title>lib/adapters/http.js</title>
<path fill="none" stroke="#c6c5fe" d="M1066.33,-240.5C1066.33,-240.5 951.667,-240.5 951.667,-240.5 947.833,-240.5 944,-236.667 944,-232.833 944,-232.833 944,-225.167 944,-225.167 944,-221.333 947.833,-217.5 951.667,-217.5 951.667,-217.5 1066.33,-217.5 1066.33,-217.5 1070.17,-217.5 1074,-221.333 1074,-225.167 1074,-225.167 1074,-232.833 1074,-232.833 1074,-236.667 1070.17,-240.5 1066.33,-240.5"/>
<text text-anchor="middle" x="1009" y="-225.3" font-family="Arial" font-size="14.00" fill="#c6c5fe">lib/adapters/http.js</text>
</g>
<!-- lib/core/buildFullPath.js -->
<g id="node4" class="node"><title>lib/core/buildFullPath.js</title>
<path fill="none" stroke="#c6c5fe" d="M1343.33,-260.5C1343.33,-260.5 1198.67,-260.5 1198.67,-260.5 1194.83,-260.5 1191,-256.667 1191,-252.833 1191,-252.833 1191,-245.167 1191,-245.167 1191,-241.333 1194.83,-237.5 1198.67,-237.5 1198.67,-237.5 1343.33,-237.5 1343.33,-237.5 1347.17,-237.5 1351,-241.333 1351,-245.167 1351,-245.167 1351,-252.833 1351,-252.833 1351,-256.667 1347.17,-260.5 1343.33,-260.5"/>
<text text-anchor="middle" x="1271" y="-245.3" font-family="Arial" font-size="14.00" fill="#c6c5fe">lib/core/buildFullPath.js</text>
</g>
<!-- lib/adapters/http.js&#45;&gt;lib/core/buildFullPath.js -->
<g id="edge2" class="edge"><title>lib/adapters/http.js&#45;&gt;lib/core/buildFullPath.js</title>
<path fill="none" stroke="#757575" d="M1074.27,-233.944C1106.3,-236.407 1145.55,-239.427 1180.47,-242.113"/>
<polygon fill="#757575" stroke="#757575" points="1180.43,-245.621 1190.67,-242.898 1180.97,-238.641 1180.43,-245.621"/>
</g>
<!-- lib/core/createError.js -->
<g id="node5" class="node"><title>lib/core/createError.js</title>
<path fill="none" stroke="#c6c5fe" d="M1575.33,-179.5C1575.33,-179.5 1440.67,-179.5 1440.67,-179.5 1436.83,-179.5 1433,-175.667 1433,-171.833 1433,-171.833 1433,-164.167 1433,-164.167 1433,-160.333 1436.83,-156.5 1440.67,-156.5 1440.67,-156.5 1575.33,-156.5 1575.33,-156.5 1579.17,-156.5 1583,-160.333 1583,-164.167 1583,-164.167 1583,-171.833 1583,-171.833 1583,-175.667 1579.17,-179.5 1575.33,-179.5"/>
<text text-anchor="middle" x="1508" y="-164.3" font-family="Arial" font-size="14.00" fill="#c6c5fe">lib/core/createError.js</text>
</g>
<!-- lib/adapters/http.js&#45;&gt;lib/core/createError.js -->
<g id="edge3" class="edge"><title>lib/adapters/http.js&#45;&gt;lib/core/createError.js</title>
<path fill="none" stroke="#757575" d="M1025.33,-217.497C1052.14,-198.179 1110.04,-159.96 1166,-146 1265.1,-121.278 1385.13,-139.758 1453.12,-154.513"/>
<polygon fill="#757575" stroke="#757575" points="1452.65,-157.993 1463.17,-156.749 1454.17,-151.16 1452.65,-157.993"/>
</g>
<!-- lib/core/enhanceError.js -->
<g id="node6" class="node"><title>lib/core/enhanceError.js</title>
<path fill="none" stroke="#cfffac" d="M1796.33,-160.5C1796.33,-160.5 1647.67,-160.5 1647.67,-160.5 1643.83,-160.5 1640,-156.667 1640,-152.833 1640,-152.833 1640,-145.167 1640,-145.167 1640,-141.333 1643.83,-137.5 1647.67,-137.5 1647.67,-137.5 1796.33,-137.5 1796.33,-137.5 1800.17,-137.5 1804,-141.333 1804,-145.167 1804,-145.167 1804,-152.833 1804,-152.833 1804,-156.667 1800.17,-160.5 1796.33,-160.5"/>
<text text-anchor="middle" x="1722" y="-145.3" font-family="Arial" font-size="14.00" fill="#cfffac">lib/core/enhanceError.js</text>
</g>
<!-- lib/adapters/http.js&#45;&gt;lib/core/enhanceError.js -->
<g id="edge4" class="edge"><title>lib/adapters/http.js&#45;&gt;lib/core/enhanceError.js</title>
<path fill="none" stroke="#757575" d="M1022.5,-217.447C1047.47,-195.263 1106.24,-147.361 1166,-130 1341.61,-78.9797 1561.69,-113.998 1663.92,-135.564"/>
<polygon fill="#757575" stroke="#757575" points="1663.22,-138.994 1673.73,-137.67 1664.69,-132.15 1663.22,-138.994"/>
</g>
<!-- lib/core/settle.js -->
<g id="node7" class="node"><title>lib/core/settle.js</title>
<path fill="none" stroke="#c6c5fe" d="M1319.83,-219.5C1319.83,-219.5 1222.17,-219.5 1222.17,-219.5 1218.33,-219.5 1214.5,-215.667 1214.5,-211.833 1214.5,-211.833 1214.5,-204.167 1214.5,-204.167 1214.5,-200.333 1218.33,-196.5 1222.17,-196.5 1222.17,-196.5 1319.83,-196.5 1319.83,-196.5 1323.67,-196.5 1327.5,-200.333 1327.5,-204.167 1327.5,-204.167 1327.5,-211.833 1327.5,-211.833 1327.5,-215.667 1323.67,-219.5 1319.83,-219.5"/>
<text text-anchor="middle" x="1271" y="-204.3" font-family="Arial" font-size="14.00" fill="#c6c5fe">lib/core/settle.js</text>
</g>
<!-- lib/adapters/http.js&#45;&gt;lib/core/settle.js -->
<g id="edge5" class="edge"><title>lib/adapters/http.js&#45;&gt;lib/core/settle.js</title>
<path fill="none" stroke="#757575" d="M1074.27,-223.809C1113.83,-220.613 1164.42,-216.528 1204.25,-213.31"/>
<polygon fill="#757575" stroke="#757575" points="1204.71,-216.785 1214.4,-212.491 1204.15,-209.807 1204.71,-216.785"/>
</g>
<!-- lib/helpers/buildURL.js -->
<g id="node8" class="node"><title>lib/helpers/buildURL.js</title>
<path fill="none" stroke="#c6c5fe" d="M1341.33,-340.5C1341.33,-340.5 1200.67,-340.5 1200.67,-340.5 1196.83,-340.5 1193,-336.667 1193,-332.833 1193,-332.833 1193,-325.167 1193,-325.167 1193,-321.333 1196.83,-317.5 1200.67,-317.5 1200.67,-317.5 1341.33,-317.5 1341.33,-317.5 1345.17,-317.5 1349,-321.333 1349,-325.167 1349,-325.167 1349,-332.833 1349,-332.833 1349,-336.667 1345.17,-340.5 1341.33,-340.5"/>
<text text-anchor="middle" x="1271" y="-325.3" font-family="Arial" font-size="14.00" fill="#c6c5fe">lib/helpers/buildURL.js</text>
</g>
<!-- lib/adapters/http.js&#45;&gt;lib/helpers/buildURL.js -->
<g id="edge6" class="edge"><title>lib/adapters/http.js&#45;&gt;lib/helpers/buildURL.js</title>
<path fill="none" stroke="#757575" d="M1030.63,-240.412C1059.97,-256.26 1115.77,-285.007 1166,-303 1178.9,-307.621 1192.98,-311.734 1206.5,-315.25"/>
<polygon fill="#757575" stroke="#757575" points="1205.67,-318.649 1216.22,-317.703 1207.38,-311.862 1205.67,-318.649"/>
</g>
<!-- lib/adapters/http.js&#45;&gt;lib/utils.js -->
<g id="edge7" class="edge"><title>lib/adapters/http.js&#45;&gt;lib/utils.js</title>
<path fill="none" stroke="#757575" d="M1050.88,-240.285C1082.24,-248.748 1126.69,-260.319 1166,-269 1258.7,-289.467 1300.12,-250.958 1376,-308 1458.12,-369.732 1492.31,-497.26 1503,-547.749"/>
<polygon fill="#757575" stroke="#757575" points="1499.57,-548.453 1504.98,-557.562 1506.43,-547.067 1499.57,-548.453"/>
</g>
<!-- package.json -->
<g id="node10" class="node"><title>package.json</title>
<path fill="none" stroke="#cfffac" d="M1312.83,-178.5C1312.83,-178.5 1229.17,-178.5 1229.17,-178.5 1225.33,-178.5 1221.5,-174.667 1221.5,-170.833 1221.5,-170.833 1221.5,-163.167 1221.5,-163.167 1221.5,-159.333 1225.33,-155.5 1229.17,-155.5 1229.17,-155.5 1312.83,-155.5 1312.83,-155.5 1316.67,-155.5 1320.5,-159.333 1320.5,-163.167 1320.5,-163.167 1320.5,-170.833 1320.5,-170.833 1320.5,-174.667 1316.67,-178.5 1312.83,-178.5"/>
<text text-anchor="middle" x="1271" y="-163.3" font-family="Arial" font-size="14.00" fill="#cfffac">package.json</text>
</g>
<!-- lib/adapters/http.js&#45;&gt;package.json -->
<g id="edge8" class="edge"><title>lib/adapters/http.js&#45;&gt;package.json</title>
<path fill="none" stroke="#757575" d="M1048.91,-217.677C1080.35,-208.733 1125.82,-196.259 1166,-187 1180.63,-183.629 1196.51,-180.373 1211.35,-177.503"/>
<polygon fill="#757575" stroke="#757575" points="1212.26,-180.891 1221.43,-175.58 1210.95,-174.015 1212.26,-180.891"/>
</g>
<!-- lib/helpers/combineURLs.js -->
<g id="node25" class="node"><title>lib/helpers/combineURLs.js</title>
<path fill="none" stroke="#cfffac" d="M1593.33,-239.5C1593.33,-239.5 1422.67,-239.5 1422.67,-239.5 1418.83,-239.5 1415,-235.667 1415,-231.833 1415,-231.833 1415,-224.167 1415,-224.167 1415,-220.333 1418.83,-216.5 1422.67,-216.5 1422.67,-216.5 1593.33,-216.5 1593.33,-216.5 1597.17,-216.5 1601,-220.333 1601,-224.167 1601,-224.167 1601,-231.833 1601,-231.833 1601,-235.667 1597.17,-239.5 1593.33,-239.5"/>
<text text-anchor="middle" x="1508" y="-224.3" font-family="Arial" font-size="14.00" fill="#cfffac">lib/helpers/combineURLs.js</text>
</g>
<!-- lib/core/buildFullPath.js&#45;&gt;lib/helpers/combineURLs.js -->
<g id="edge33" class="edge"><title>lib/core/buildFullPath.js&#45;&gt;lib/helpers/combineURLs.js</title>
<path fill="none" stroke="#757575" d="M1351.23,-241.92C1368.27,-240.397 1386.52,-238.766 1404.31,-237.177"/>
<polygon fill="#757575" stroke="#757575" points="1405.07,-240.623 1414.72,-236.246 1404.45,-233.651 1405.07,-240.623"/>
</g>
<!-- lib/helpers/isAbsoluteURL.js -->
<g id="node26" class="node"><title>lib/helpers/isAbsoluteURL.js</title>
<path fill="none" stroke="#cfffac" d="M1595.83,-280.5C1595.83,-280.5 1420.17,-280.5 1420.17,-280.5 1416.33,-280.5 1412.5,-276.667 1412.5,-272.833 1412.5,-272.833 1412.5,-265.167 1412.5,-265.167 1412.5,-261.333 1416.33,-257.5 1420.17,-257.5 1420.17,-257.5 1595.83,-257.5 1595.83,-257.5 1599.67,-257.5 1603.5,-261.333 1603.5,-265.167 1603.5,-265.167 1603.5,-272.833 1603.5,-272.833 1603.5,-276.667 1599.67,-280.5 1595.83,-280.5"/>
<text text-anchor="middle" x="1508" y="-265.3" font-family="Arial" font-size="14.00" fill="#cfffac">lib/helpers/isAbsoluteURL.js</text>
</g>
<!-- lib/core/buildFullPath.js&#45;&gt;lib/helpers/isAbsoluteURL.js -->
<g id="edge34" class="edge"><title>lib/core/buildFullPath.js&#45;&gt;lib/helpers/isAbsoluteURL.js</title>
<path fill="none" stroke="#757575" d="M1351.23,-255.743C1367.61,-257.137 1385.09,-258.625 1402.22,-260.082"/>
<polygon fill="#757575" stroke="#757575" points="1401.98,-263.575 1412.24,-260.936 1402.58,-256.6 1401.98,-263.575"/>
</g>
<!-- lib/core/createError.js&#45;&gt;lib/core/enhanceError.js -->
<g id="edge35" class="edge"><title>lib/core/createError.js&#45;&gt;lib/core/enhanceError.js</title>
<path fill="none" stroke="#757575" d="M1583.15,-161.355C1598.13,-160.012 1614.06,-158.585 1629.56,-157.196"/>
<polygon fill="#757575" stroke="#757575" points="1630.02,-160.668 1639.67,-156.289 1629.39,-153.696 1630.02,-160.668"/>
</g>
<!-- lib/core/settle.js&#45;&gt;lib/core/createError.js -->
<g id="edge41" class="edge"><title>lib/core/settle.js&#45;&gt;lib/core/createError.js</title>
<path fill="none" stroke="#757575" d="M1327.69,-198.521C1358.44,-193.286 1397.09,-186.708 1430.62,-181"/>
<polygon fill="#757575" stroke="#757575" points="1431.58,-184.388 1440.85,-179.26 1430.4,-177.487 1431.58,-184.388"/>
</g>
<!-- lib/helpers/buildURL.js&#45;&gt;lib/utils.js -->
<g id="edge47" class="edge"><title>lib/helpers/buildURL.js&#45;&gt;lib/utils.js</title>
<path fill="none" stroke="#757575" d="M1298.79,-340.287C1321.08,-350.545 1352.8,-367.231 1376,-388 1430.68,-436.954 1476.1,-512.42 1496.07,-548.465"/>
<polygon fill="#757575" stroke="#757575" points="1493.15,-550.428 1501.01,-557.531 1499.3,-547.076 1493.15,-550.428"/>
</g>
<!-- lib/utils.js&#45;&gt;lib/helpers/bind.js -->
<g id="edge52" class="edge"><title>lib/utils.js&#45;&gt;lib/helpers/bind.js</title>
<path fill="none" stroke="#757575" d="M1513.34,-557.669C1527.66,-519.949 1574.25,-395.015 1604,-289 1623.81,-218.404 1594.41,-185.425 1640,-128 1648.04,-117.873 1659.36,-110.215 1671,-104.49"/>
<polygon fill="#757575" stroke="#757575" points="1672.64,-107.587 1680.34,-100.303 1669.78,-101.2 1672.64,-107.587"/>
</g>
<!-- lib/adapters/xhr.js -->
<g id="node11" class="node"><title>lib/adapters/xhr.js</title>
<path fill="none" stroke="#c6c5fe" d="M1064.33,-420.5C1064.33,-420.5 953.667,-420.5 953.667,-420.5 949.833,-420.5 946,-416.667 946,-412.833 946,-412.833 946,-405.167 946,-405.167 946,-401.333 949.833,-397.5 953.667,-397.5 953.667,-397.5 1064.33,-397.5 1064.33,-397.5 1068.17,-397.5 1072,-401.333 1072,-405.167 1072,-405.167 1072,-412.833 1072,-412.833 1072,-416.667 1068.17,-420.5 1064.33,-420.5"/>
<text text-anchor="middle" x="1009" y="-405.3" font-family="Arial" font-size="14.00" fill="#c6c5fe">lib/adapters/xhr.js</text>
</g>
<!-- lib/adapters/xhr.js&#45;&gt;lib/core/buildFullPath.js -->
<g id="edge9" class="edge"><title>lib/adapters/xhr.js&#45;&gt;lib/core/buildFullPath.js</title>
<path fill="none" stroke="#757575" d="M1027.1,-397.457C1055.59,-378.339 1114.69,-339.126 1166,-308 1190.74,-292.993 1219.36,-276.839 1240.31,-265.235"/>
<polygon fill="#757575" stroke="#757575" points="1242.01,-268.297 1249.07,-260.4 1238.63,-262.168 1242.01,-268.297"/>
</g>
<!-- lib/adapters/xhr.js&#45;&gt;lib/core/createError.js -->
<g id="edge10" class="edge"><title>lib/adapters/xhr.js&#45;&gt;lib/core/createError.js</title>
<path fill="none" stroke="#757575" d="M1072.2,-400.603C1173.71,-386.647 1364.88,-359.204 1376,-349 1423.97,-304.979 1369.33,-256.172 1412,-207 1421.12,-196.49 1433.51,-188.763 1446.33,-183.1"/>
<polygon fill="#757575" stroke="#757575" points="1447.73,-186.31 1455.7,-179.33 1445.12,-179.816 1447.73,-186.31"/>
</g>
<!-- lib/adapters/xhr.js&#45;&gt;lib/core/settle.js -->
<g id="edge11" class="edge"><title>lib/adapters/xhr.js&#45;&gt;lib/core/settle.js</title>
<path fill="none" stroke="#757575" d="M1016.26,-397.33C1034.47,-364.589 1090.96,-271.435 1166,-228 1177.6,-221.284 1191.03,-216.771 1204.31,-213.751"/>
<polygon fill="#757575" stroke="#757575" points="1205.28,-217.125 1214.4,-211.721 1203.9,-210.263 1205.28,-217.125"/>
</g>
<!-- lib/adapters/xhr.js&#45;&gt;lib/helpers/buildURL.js -->
<g id="edge12" class="edge"><title>lib/adapters/xhr.js&#45;&gt;lib/helpers/buildURL.js</title>
<path fill="none" stroke="#757575" d="M1040.23,-397.645C1071.47,-386.122 1121.77,-368.155 1166,-355 1180.49,-350.689 1196.26,-346.495 1211.04,-342.779"/>
<polygon fill="#757575" stroke="#757575" points="1212.22,-346.092 1221.08,-340.287 1210.53,-339.298 1212.22,-346.092"/>
</g>
<!-- lib/adapters/xhr.js&#45;&gt;lib/utils.js -->
<g id="edge16" class="edge"><title>lib/adapters/xhr.js&#45;&gt;lib/utils.js</title>
<path fill="none" stroke="#757575" d="M1023.13,-420.349C1048.72,-441.802 1107.86,-488.197 1166,-511 1219.04,-531.801 1380.76,-553.628 1460.94,-563.534"/>
<polygon fill="#757575" stroke="#757575" points="1460.88,-567.053 1471.23,-564.795 1461.73,-560.105 1460.88,-567.053"/>
</g>
<!-- lib/helpers/cookies.js -->
<g id="node12" class="node"><title>lib/helpers/cookies.js</title>
<path fill="none" stroke="#c6c5fe" d="M1336.33,-502.5C1336.33,-502.5 1205.67,-502.5 1205.67,-502.5 1201.83,-502.5 1198,-498.667 1198,-494.833 1198,-494.833 1198,-487.167 1198,-487.167 1198,-483.333 1201.83,-479.5 1205.67,-479.5 1205.67,-479.5 1336.33,-479.5 1336.33,-479.5 1340.17,-479.5 1344,-483.333 1344,-487.167 1344,-487.167 1344,-494.833 1344,-494.833 1344,-498.667 1340.17,-502.5 1336.33,-502.5"/>
<text text-anchor="middle" x="1271" y="-487.3" font-family="Arial" font-size="14.00" fill="#c6c5fe">lib/helpers/cookies.js</text>
</g>
<!-- lib/adapters/xhr.js&#45;&gt;lib/helpers/cookies.js -->
<g id="edge13" class="edge"><title>lib/adapters/xhr.js&#45;&gt;lib/helpers/cookies.js</title>
<path fill="none" stroke="#757575" d="M1034.93,-420.305C1065.34,-433.73 1118.57,-456.053 1166,-470 1175.41,-472.767 1185.41,-475.292 1195.34,-477.555"/>
<polygon fill="#757575" stroke="#757575" points="1194.7,-480.999 1205.22,-479.73 1196.2,-474.163 1194.7,-480.999"/>
</g>
<!-- lib/helpers/isURLSameOrigin.js -->
<g id="node13" class="node"><title>lib/helpers/isURLSameOrigin.js</title>
<path fill="none" stroke="#c6c5fe" d="M1368.33,-461.5C1368.33,-461.5 1173.67,-461.5 1173.67,-461.5 1169.83,-461.5 1166,-457.667 1166,-453.833 1166,-453.833 1166,-446.167 1166,-446.167 1166,-442.333 1169.83,-438.5 1173.67,-438.5 1173.67,-438.5 1368.33,-438.5 1368.33,-438.5 1372.17,-438.5 1376,-442.333 1376,-446.167 1376,-446.167 1376,-453.833 1376,-453.833 1376,-457.667 1372.17,-461.5 1368.33,-461.5"/>
<text text-anchor="middle" x="1271" y="-446.3" font-family="Arial" font-size="14.00" fill="#c6c5fe">lib/helpers/isURLSameOrigin.js</text>
</g>
<!-- lib/adapters/xhr.js&#45;&gt;lib/helpers/isURLSameOrigin.js -->
<g id="edge14" class="edge"><title>lib/adapters/xhr.js&#45;&gt;lib/helpers/isURLSameOrigin.js</title>
<path fill="none" stroke="#757575" d="M1072.28,-418.821C1107.17,-424.323 1151.09,-431.248 1188.67,-437.174"/>
<polygon fill="#757575" stroke="#757575" points="1188.16,-440.637 1198.58,-438.737 1189.25,-433.722 1188.16,-440.637"/>
</g>
<!-- lib/helpers/parseHeaders.js -->
<g id="node14" class="node"><title>lib/helpers/parseHeaders.js</title>
<path fill="none" stroke="#c6c5fe" d="M1356.33,-420.5C1356.33,-420.5 1185.67,-420.5 1185.67,-420.5 1181.83,-420.5 1178,-416.667 1178,-412.833 1178,-412.833 1178,-405.167 1178,-405.167 1178,-401.333 1181.83,-397.5 1185.67,-397.5 1185.67,-397.5 1356.33,-397.5 1356.33,-397.5 1360.17,-397.5 1364,-401.333 1364,-405.167 1364,-405.167 1364,-412.833 1364,-412.833 1364,-416.667 1360.17,-420.5 1356.33,-420.5"/>
<text text-anchor="middle" x="1271" y="-405.3" font-family="Arial" font-size="14.00" fill="#c6c5fe">lib/helpers/parseHeaders.js</text>
</g>
<!-- lib/adapters/xhr.js&#45;&gt;lib/helpers/parseHeaders.js -->
<g id="edge15" class="edge"><title>lib/adapters/xhr.js&#45;&gt;lib/helpers/parseHeaders.js</title>
<path fill="none" stroke="#757575" d="M1072.28,-409C1100.74,-409 1135.22,-409 1167.36,-409"/>
<polygon fill="#757575" stroke="#757575" points="1167.71,-412.5 1177.71,-409 1167.71,-405.5 1167.71,-412.5"/>
</g>
<!-- lib/helpers/cookies.js&#45;&gt;lib/utils.js -->
<g id="edge48" class="edge"><title>lib/helpers/cookies.js&#45;&gt;lib/utils.js</title>
<path fill="none" stroke="#757575" d="M1322.9,-502.293C1339.92,-506.448 1358.9,-511.497 1376,-517 1409.05,-527.637 1445.7,-542.455 1471.81,-553.553"/>
<polygon fill="#757575" stroke="#757575" points="1470.7,-556.886 1481.27,-557.608 1473.46,-550.452 1470.7,-556.886"/>
</g>
<!-- lib/helpers/isURLSameOrigin.js&#45;&gt;lib/utils.js -->
<g id="edge49" class="edge"><title>lib/helpers/isURLSameOrigin.js&#45;&gt;lib/utils.js</title>
<path fill="none" stroke="#757575" d="M1351.26,-461.278C1359.78,-463.652 1368.19,-466.525 1376,-470 1420.93,-489.987 1464.79,-527.989 1488.62,-550.653"/>
<polygon fill="#757575" stroke="#757575" points="1486.29,-553.265 1495.91,-557.703 1491.15,-548.234 1486.29,-553.265"/>
</g>
<!-- lib/helpers/parseHeaders.js&#45;&gt;lib/utils.js -->
<g id="edge51" class="edge"><title>lib/helpers/parseHeaders.js&#45;&gt;lib/utils.js</title>
<path fill="none" stroke="#757575" d="M1355.96,-420.28C1362.94,-422.662 1369.72,-425.535 1376,-429 1429.61,-458.589 1473.82,-517.951 1494.46,-549.014"/>
<polygon fill="#757575" stroke="#757575" points="1491.7,-551.202 1500.09,-557.681 1497.57,-547.388 1491.7,-551.202"/>
</g>
<!-- lib/cancel/CancelToken.js&#45;&gt;lib/cancel/Cancel.js -->
<g id="edge26" class="edge"><title>lib/cancel/CancelToken.js&#45;&gt;lib/cancel/Cancel.js</title>
<path fill="none" stroke="#757575" d="M393.733,-946.299C410.332,-944.826 427.606,-943.292 443.878,-941.847"/>
<polygon fill="#757575" stroke="#757575" points="444.214,-945.331 453.865,-940.961 443.595,-938.359 444.214,-945.331"/>
</g>
<!-- lib/core/Axios.js&#45;&gt;lib/helpers/buildURL.js -->
<g id="edge30" class="edge"><title>lib/core/Axios.js&#45;&gt;lib/helpers/buildURL.js</title>
<path fill="none" stroke="#757575" d="M321.146,-726.455C383.379,-676.355 640.705,-476.332 888,-388 985.221,-353.273 1103.55,-338.977 1182.5,-333.098"/>
<polygon fill="#757575" stroke="#757575" points="1183.17,-336.559 1192.89,-332.355 1182.67,-329.577 1183.17,-336.559"/>
</g>
<!-- lib/core/Axios.js&#45;&gt;lib/utils.js -->
<g id="edge31" class="edge"><title>lib/core/Axios.js&#45;&gt;lib/utils.js</title>
<path fill="none" stroke="#757575" d="M363.04,-743.765C556.904,-762.735 1196.99,-816.973 1376,-726 1435.62,-695.699 1478.44,-624.964 1496.89,-589.721"/>
<polygon fill="#757575" stroke="#757575" points="1500.22,-590.895 1501.64,-580.395 1493.98,-587.72 1500.22,-590.895"/>
</g>
<!-- lib/core/Axios.js&#45;&gt;lib/core/mergeConfig.js -->
<g id="edge29" class="edge"><title>lib/core/Axios.js&#45;&gt;lib/core/mergeConfig.js</title>
<path fill="none" stroke="#757575" d="M331.967,-749.434C370.304,-766.989 443.75,-800.624 486.94,-820.402"/>
<polygon fill="#757575" stroke="#757575" points="485.642,-823.658 496.192,-824.639 488.557,-817.293 485.642,-823.658"/>
</g>
<!-- lib/core/InterceptorManager.js -->
<g id="node23" class="node"><title>lib/core/InterceptorManager.js</title>
<path fill="none" stroke="#c6c5fe" d="M844.333,-730.5C844.333,-730.5 657.667,-730.5 657.667,-730.5 653.833,-730.5 650,-726.667 650,-722.833 650,-722.833 650,-715.167 650,-715.167 650,-711.333 653.833,-707.5 657.667,-707.5 657.667,-707.5 844.333,-707.5 844.333,-707.5 848.167,-707.5 852,-711.333 852,-715.167 852,-715.167 852,-722.833 852,-722.833 852,-726.667 848.167,-730.5 844.333,-730.5"/>
<text text-anchor="middle" x="751" y="-715.3" font-family="Arial" font-size="14.00" fill="#c6c5fe">lib/core/InterceptorManager.js</text>
</g>
<!-- lib/core/Axios.js&#45;&gt;lib/core/InterceptorManager.js -->
<g id="edge27" class="edge"><title>lib/core/Axios.js&#45;&gt;lib/core/InterceptorManager.js</title>
<path fill="none" stroke="#757575" d="M363.106,-735.594C432.379,-732.623 551.794,-727.501 639.681,-723.732"/>
<polygon fill="#757575" stroke="#757575" points="639.856,-727.227 649.697,-723.302 639.556,-720.234 639.856,-727.227"/>
</g>
<!-- lib/core/dispatchRequest.js -->
<g id="node24" class="node"><title>lib/core/dispatchRequest.js</title>
<path fill="none" stroke="#c6c5fe" d="M606.333,-690.5C606.333,-690.5 437.667,-690.5 437.667,-690.5 433.833,-690.5 430,-686.667 430,-682.833 430,-682.833 430,-675.167 430,-675.167 430,-671.333 433.833,-667.5 437.667,-667.5 437.667,-667.5 606.333,-667.5 606.333,-667.5 610.167,-667.5 614,-671.333 614,-675.167 614,-675.167 614,-682.833 614,-682.833 614,-686.667 610.167,-690.5 606.333,-690.5"/>
<text text-anchor="middle" x="522" y="-675.3" font-family="Arial" font-size="14.00" fill="#c6c5fe">lib/core/dispatchRequest.js</text>
</g>
<!-- lib/core/Axios.js&#45;&gt;lib/core/dispatchRequest.js -->
<g id="edge28" class="edge"><title>lib/core/Axios.js&#45;&gt;lib/core/dispatchRequest.js</title>
<path fill="none" stroke="#757575" d="M348.008,-726.694C382.879,-717.08 433.091,-703.236 470.445,-692.938"/>
<polygon fill="#757575" stroke="#757575" points="471.421,-696.3 480.131,-690.268 469.56,-689.552 471.421,-696.3"/>
</g>
<!-- lib/core/mergeConfig.js&#45;&gt;lib/utils.js -->
<g id="edge40" class="edge"><title>lib/core/mergeConfig.js&#45;&gt;lib/utils.js</title>
<path fill="none" stroke="#757575" d="M602.282,-838.133C801.393,-842.866 1311.23,-850.887 1376,-811 1458.07,-760.461 1492.14,-639.287 1502.9,-590.194"/>
<polygon fill="#757575" stroke="#757575" points="1506.34,-590.857 1504.95,-580.353 1499.48,-589.429 1506.34,-590.857"/>
</g>
<!-- lib/defaults.js&#45;&gt;lib/adapters/http.js -->
<g id="edge43" class="edge"><title>lib/defaults.js&#45;&gt;lib/adapters/http.js</title>
<path fill="none" stroke="#757575" d="M759.833,-570.531C780.465,-540.384 838.151,-456.518 888,-388 925.036,-337.094 970.075,-278.191 993.01,-248.402"/>
<polygon fill="#757575" stroke="#757575" points="995.794,-250.524 999.127,-240.467 990.25,-246.25 995.794,-250.524"/>
</g>
<!-- lib/defaults.js&#45;&gt;lib/utils.js -->
<g id="edge46" class="edge"><title>lib/defaults.js&#45;&gt;lib/utils.js</title>
<path fill="none" stroke="#757575" d="M799.515,-581.182C935.735,-578.836 1326.45,-572.109 1460.9,-569.794"/>
<polygon fill="#757575" stroke="#757575" points="1461.31,-573.287 1471.24,-569.616 1461.19,-566.288 1461.31,-573.287"/>
</g>
<!-- lib/defaults.js&#45;&gt;lib/adapters/xhr.js -->
<g id="edge44" class="edge"><title>lib/defaults.js&#45;&gt;lib/adapters/xhr.js</title>
<path fill="none" stroke="#757575" d="M768.797,-570.649C812.646,-541.017 930.766,-461.193 982.801,-426.029"/>
<polygon fill="#757575" stroke="#757575" points="984.816,-428.892 991.141,-420.393 980.896,-423.092 984.816,-428.892"/>
</g>
<!-- lib/helpers/normalizeHeaderName.js -->
<g id="node28" class="node"><title>lib/helpers/normalizeHeaderName.js</title>
<path fill="none" stroke="#c6c5fe" d="M1122.33,-613.5C1122.33,-613.5 895.667,-613.5 895.667,-613.5 891.833,-613.5 888,-609.667 888,-605.833 888,-605.833 888,-598.167 888,-598.167 888,-594.333 891.833,-590.5 895.667,-590.5 895.667,-590.5 1122.33,-590.5 1122.33,-590.5 1126.17,-590.5 1130,-594.333 1130,-598.167 1130,-598.167 1130,-605.833 1130,-605.833 1130,-609.667 1126.17,-613.5 1122.33,-613.5"/>
<text text-anchor="middle" x="1009" y="-598.3" font-family="Arial" font-size="14.00" fill="#c6c5fe">lib/helpers/normalizeHeaderName.js</text>
</g>
<!-- lib/defaults.js&#45;&gt;lib/helpers/normalizeHeaderName.js -->
<g id="edge45" class="edge"><title>lib/defaults.js&#45;&gt;lib/helpers/normalizeHeaderName.js</title>
<path fill="none" stroke="#757575" d="M799.552,-585.715C821.831,-587.456 849.578,-589.623 877.485,-591.804"/>
<polygon fill="#757575" stroke="#757575" points="877.522,-595.317 887.764,-592.607 878.067,-588.338 877.522,-595.317"/>
</g>
<!-- lib/core/InterceptorManager.js&#45;&gt;lib/utils.js -->
<g id="edge32" class="edge"><title>lib/core/InterceptorManager.js&#45;&gt;lib/utils.js</title>
<path fill="none" stroke="#757575" d="M852.106,-724.138C1003.99,-730.483 1284.63,-736.118 1376,-697 1429.51,-674.09 1473.48,-618.492 1494.19,-588.671"/>
<polygon fill="#757575" stroke="#757575" points="1497.14,-590.551 1499.85,-580.309 1491.35,-586.625 1497.14,-590.551"/>
</g>
<!-- lib/core/dispatchRequest.js&#45;&gt;lib/utils.js -->
<g id="edge39" class="edge"><title>lib/core/dispatchRequest.js&#45;&gt;lib/utils.js</title>
<path fill="none" stroke="#757575" d="M614.023,-687.439C772.557,-699.206 1108.02,-711.037 1376,-632 1413.51,-620.936 1453.61,-600.181 1479.42,-585.523"/>
<polygon fill="#757575" stroke="#757575" points="1481.34,-588.456 1488.25,-580.427 1477.84,-582.393 1481.34,-588.456"/>
</g>
<!-- lib/core/dispatchRequest.js&#45;&gt;lib/cancel/isCancel.js -->
<g id="edge36" class="edge"><title>lib/core/dispatchRequest.js&#45;&gt;lib/cancel/isCancel.js</title>
<path fill="none" stroke="#757575" d="M536.186,-690.443C574.034,-723.289 683.238,-818.061 729.21,-857.958"/>
<polygon fill="#757575" stroke="#757575" points="726.931,-860.614 736.778,-864.525 731.519,-855.328 726.931,-860.614"/>
</g>
<!-- lib/core/dispatchRequest.js&#45;&gt;lib/defaults.js -->
<g id="edge38" class="edge"><title>lib/core/dispatchRequest.js&#45;&gt;lib/defaults.js</title>
<path fill="none" stroke="#757575" d="M549.484,-667.683C590.211,-650.28 668.294,-616.914 714.079,-597.349"/>
<polygon fill="#757575" stroke="#757575" points="715.513,-600.543 723.334,-593.395 712.763,-594.106 715.513,-600.543"/>
</g>
<!-- lib/core/transformData.js -->
<g id="node27" class="node"><title>lib/core/transformData.js</title>
<path fill="none" stroke="#c6c5fe" d="M1085.33,-654.5C1085.33,-654.5 932.667,-654.5 932.667,-654.5 928.833,-654.5 925,-650.667 925,-646.833 925,-646.833 925,-639.167 925,-639.167 925,-635.333 928.833,-631.5 932.667,-631.5 932.667,-631.5 1085.33,-631.5 1085.33,-631.5 1089.17,-631.5 1093,-635.333 1093,-639.167 1093,-639.167 1093,-646.833 1093,-646.833 1093,-650.667 1089.17,-654.5 1085.33,-654.5"/>
<text text-anchor="middle" x="1009" y="-639.3" font-family="Arial" font-size="14.00" fill="#c6c5fe">lib/core/transformData.js</text>
</g>
<!-- lib/core/dispatchRequest.js&#45;&gt;lib/core/transformData.js -->
<g id="edge37" class="edge"><title>lib/core/dispatchRequest.js&#45;&gt;lib/core/transformData.js</title>
<path fill="none" stroke="#757575" d="M614.171,-668.412C626.212,-667.171 638.397,-665.995 650,-665 739.771,-657.298 842.431,-651.274 914.732,-647.492"/>
<polygon fill="#757575" stroke="#757575" points="914.922,-650.987 924.728,-646.974 914.56,-643.997 914.922,-650.987"/>
</g>
<!-- lib/core/transformData.js&#45;&gt;lib/utils.js -->
<g id="edge42" class="edge"><title>lib/core/transformData.js&#45;&gt;lib/utils.js</title>
<path fill="none" stroke="#757575" d="M1093.02,-637.837C1167.55,-632.329 1279.72,-621.881 1376,-604 1404.91,-598.631 1436.8,-590.168 1461.88,-582.909"/>
<polygon fill="#757575" stroke="#757575" points="1462.87,-586.265 1471.48,-580.092 1460.9,-579.548 1462.87,-586.265"/>
</g>
<!-- lib/helpers/normalizeHeaderName.js&#45;&gt;lib/utils.js -->
<g id="edge50" class="edge"><title>lib/helpers/normalizeHeaderName.js&#45;&gt;lib/utils.js</title>
<path fill="none" stroke="#757575" d="M1130.03,-597.422C1201.52,-594.283 1294.02,-589.504 1376,-583 1404.46,-580.742 1436.3,-577.359 1461.47,-574.483"/>
<polygon fill="#757575" stroke="#757575" points="1461.93,-577.953 1471.46,-573.328 1461.13,-570.999 1461.93,-577.953"/>
</g>
</g>
</svg>
